<svg width="26" height="27" viewBox="0 0 26 27" fill="none" xmlns="http://www.w3.org/2000/svg">
<path d="M13 26.5542C10.4289 26.5542 7.91543 25.7917 5.7776 24.3633C3.63976 22.9348 1.97351 20.9045 0.989571 18.5291C0.00563157 16.1536 -0.251811 13.5398 0.249799 11.018C0.751408 8.49626 1.98954 6.17989 3.80763 4.36181C6.2456 1.92384 9.5522 0.554199 13 0.554199C16.4478 0.554199 19.7544 1.92384 22.1924 4.36181C24.6304 6.79978 26 10.1064 26 13.5542C26 17.002 24.6304 20.3086 22.1924 22.7466C20.988 23.9575 19.5555 24.9175 17.9776 25.5711C16.3997 26.2247 14.7079 26.5588 13 26.5542ZM13 2.28756C6.7876 2.28756 1.73337 7.34178 1.73337 13.5542C1.73337 19.7666 6.7876 24.8208 13 24.8208C19.2124 24.8208 24.2666 19.7666 24.2666 13.5542C24.2666 7.34178 19.2124 2.28756 13 2.28756Z" fill="black"/>
<path d="M13.0002 18.2464L6.3208 11.5669L7.54637 10.3413L13.0002 15.7951L18.4541 10.3413L19.6797 11.5669L13.0002 18.2464Z" fill="black"/>
</svg>
