<svg width="40" height="267" viewBox="0 0 40 267" fill="none" xmlns="http://www.w3.org/2000/svg">
<path d="M20.4925 41.6699C9.71885 41.6699 0.985152 32.9361 0.985152 22.1625C0.985153 11.3889 4.20163 -1.5648e-06 14.9752 -1.09387e-06C33.3003 -2.92852e-07 35.9999 14.9763 35.9999 25.7499C35.9999 36.5236 31.2661 41.6699 20.4925 41.6699Z" fill="white"/>
<path d="M24 266.5C13.2264 266.5 6.87907e-05 258.925 6.92616e-05 248.151C6.97325e-05 237.378 9.71899 228.75 20.4926 228.75C38.8177 228.75 40 237.378 40 248.151C40 258.925 34.7736 266.5 24 266.5Z" fill="white"/>
<path d="M20.4925 152.92C9.71885 152.92 0.985143 151.477 0.985143 140.703C0.985144 129.929 4.20164 116.703 14.9752 116.703C33.3003 116.703 39.9999 121.259 39.9999 132.033C39.9999 142.807 31.2661 152.92 20.4925 152.92Z" fill="white"/>
</svg>
