<svg width="758" height="98" viewBox="0 0 758 98" fill="none" xmlns="http://www.w3.org/2000/svg">
<g filter="url(#filter0_d_82_197)">
<path d="M106.34 48.0148C106.34 69.5621 88.8724 87.0296 67.3251 87.0296C45.7779 87.0296 9 80.5965 9 59.0493C9 22.399 45.7779 9 67.3251 9C88.8724 9 106.34 26.4675 106.34 48.0148Z" fill="white"/>
<path d="M427.14 34.6158C427.14 56.163 397.85 89 376.303 89C354.755 89 331.376 69.562 331.376 48.0148C331.376 11.3645 354.755 9 376.303 9C397.85 9 427.14 13.0685 427.14 34.6158Z" fill="white"/>
<path d="M748.433 48.0148C748.433 69.562 745.547 87.0296 724 87.0296C702.453 87.0296 661.734 69.562 661.734 48.0148C661.734 11.3645 685.113 9 706.66 9C728.207 9 748.433 26.4675 748.433 48.0148Z" fill="white"/>
<path d="M385.104 35.5352H373.15L368.027 50.9046H374.857L371.442 64.5664L390.227 45.7815H381.005L385.104 35.5352Z" stroke="#3D3E40" stroke-width="1.5" stroke-linecap="round" stroke-linejoin="round"/>
<path d="M53.544 57.7354L43.2977 62.8586L45.8593 52.6123L38.1746 44.0737L49.2747 43.2198L53.544 33.8274L57.8133 43.2198L68.9135 44.0737L61.2287 52.6123L63.7903 62.8586L53.544 57.7354Z" stroke="#3D3E40" stroke-width="1.5" stroke-linecap="round" stroke-linejoin="round"/>
<path d="M688.123 57.7357C701.703 60.4982 711.49 43.6602 701.785 33.8276C710.325 34.0521 717.154 40.8489 717.154 49.1971C717.154 57.687 710.526 64.5666 701.785 64.5666C696.271 64.5666 690.957 61.8887 688.123 57.7357Z" stroke="#3D3E40" stroke-width="1.5" stroke-linejoin="round"/>
</g>
<defs>
<filter id="filter0_d_82_197" x="0" y="0" width="757.434" height="98" filterUnits="userSpaceOnUse" color-interpolation-filters="sRGB">
<feFlood flood-opacity="0" result="BackgroundImageFix"/>
<feColorMatrix in="SourceAlpha" type="matrix" values="0 0 0 0 0 0 0 0 0 0 0 0 0 0 0 0 0 0 127 0" result="hardAlpha"/>
<feOffset/>
<feGaussianBlur stdDeviation="4.5"/>
<feComposite in2="hardAlpha" operator="out"/>
<feColorMatrix type="matrix" values="0 0 0 0 0.683333 0 0 0 0 0.683333 0 0 0 0 0.683333 0 0 0 0.1 0"/>
<feBlend mode="normal" in2="BackgroundImageFix" result="effect1_dropShadow_82_197"/>
<feBlend mode="normal" in="SourceGraphic" in2="effect1_dropShadow_82_197" result="shape"/>
</filter>
</defs>
</svg>
