<svg width="45" height="60" viewBox="0 0 45 60" fill="none" xmlns="http://www.w3.org/2000/svg">
<path d="M22.3006 14.1058C20.6775 14.1058 19.0907 14.5872 17.7411 15.4889C16.3915 16.3907 15.3396 17.6725 14.7185 19.1721C14.0973 20.6717 13.9348 22.3218 14.2514 23.9138C14.5681 25.5058 15.3497 26.9681 16.4975 28.1158C17.6452 29.2636 19.1076 30.0452 20.6995 30.3619C22.2915 30.6785 23.9416 30.516 25.4412 29.8949C26.9409 29.2737 28.2226 28.2218 29.1244 26.8722C30.0262 25.5226 30.5075 23.9359 30.5075 22.3127C30.505 20.1369 29.6396 18.0509 28.101 16.5123C26.5625 14.9738 24.4765 14.1083 22.3006 14.1058ZM22.3006 26.4161C21.489 26.4161 20.6957 26.1755 20.0209 25.7246C19.3461 25.2737 18.8201 24.6328 18.5095 23.883C18.199 23.1332 18.1177 22.3081 18.276 21.5122C18.4344 20.7162 18.8252 19.985 19.3991 19.4111C19.9729 18.8373 20.7041 18.4464 21.5001 18.2881C22.2961 18.1298 23.1211 18.211 23.8709 18.5216C24.6207 18.8322 25.2616 19.3581 25.7125 20.033C26.1634 20.7078 26.4041 21.5011 26.4041 22.3127C26.4028 23.4006 25.9701 24.4436 25.2008 25.2129C24.4315 25.9821 23.3885 26.4149 22.3006 26.4161Z" fill="#FBB03B"/>
<path d="M38.0707 6.53025C34.1715 2.63204 28.9665 0.316346 23.4603 0.0300981C17.9542 -0.25615 12.5372 1.50734 8.25477 4.98021C3.97237 8.45308 1.12819 13.3891 0.271146 18.8357C-0.585895 24.2823 0.604962 29.8533 3.61388 34.4735L19.1181 58.275C19.4631 58.8047 19.9348 59.2398 20.4905 59.541C21.0463 59.8422 21.6684 60 22.3005 60C22.9326 60 23.5547 59.8422 24.1104 59.541C24.6661 59.2398 25.1378 58.8047 25.4829 58.275L40.9876 34.4735C43.7795 30.1876 45.0133 25.0722 44.4823 19.9848C43.9512 14.8974 41.6875 10.1471 38.0707 6.53025ZM37.5494 32.2336L22.3005 55.6424L7.05153 32.2336C2.38388 25.0681 3.38499 15.4789 9.43191 9.43176C11.1218 7.74179 13.1281 6.40124 15.3361 5.48664C17.5441 4.57203 19.9106 4.10129 22.3005 4.10129C24.6905 4.10129 27.057 4.57203 29.265 5.48664C31.473 6.40124 33.4792 7.74179 35.1691 9.43176C41.2161 15.4789 42.217 25.0681 37.5494 32.2336Z" fill="#FBB03B"/>
</svg>
