<svg width="41" height="54" viewBox="0 0 41 54" fill="none" xmlns="http://www.w3.org/2000/svg">
<path d="M20.1429 12.8572C18.7019 12.8572 17.2933 13.2845 16.0952 14.085C14.897 14.8856 13.9632 16.0235 13.4118 17.3548C12.8603 18.6861 12.7161 20.151 12.9972 21.5643C13.2783 22.9776 13.9722 24.2757 14.9911 25.2947C16.01 26.3136 17.3082 27.0075 18.7215 27.2886C20.1348 27.5697 21.5997 27.4254 22.931 26.874C24.2623 26.3226 25.4002 25.3887 26.2007 24.1906C27.0013 22.9925 27.4286 21.5839 27.4286 20.1429C27.4264 18.2113 26.6581 16.3594 25.2922 14.9935C23.9264 13.6277 22.0745 12.8594 20.1429 12.8572ZM20.1429 23.7857C19.4224 23.7857 18.7181 23.5721 18.119 23.1718C17.52 22.7715 17.0531 22.2026 16.7773 21.537C16.5016 20.8713 16.4295 20.1388 16.57 19.4322C16.7106 18.7256 17.0575 18.0765 17.567 17.567C18.0765 17.0575 18.7256 16.7106 19.4322 16.57C20.1389 16.4295 20.8713 16.5016 21.537 16.7773C22.2026 17.053 22.7715 17.52 23.1718 18.119C23.5721 18.7181 23.7858 19.4224 23.7858 20.1429C23.7846 21.1087 23.4005 22.0346 22.7175 22.7175C22.0346 23.4005 21.1087 23.7846 20.1429 23.7857Z" fill="#FBB03B"/>
<path d="M34.3858 5.87722C30.864 2.36884 26.1628 0.284712 21.1896 0.0270883C16.2164 -0.230535 11.3237 1.3566 7.45579 4.48219C3.58789 7.60777 1.01899 12.0502 0.244902 16.9521C-0.529186 21.8541 0.546407 26.8679 3.26409 31.0261L17.2676 52.4475C17.5792 52.9242 18.0053 53.3158 18.5073 53.5869C19.0092 53.858 19.5711 54 20.142 54C20.7129 54 21.2748 53.858 21.7767 53.5869C22.2787 53.3158 22.7047 52.9242 23.0164 52.4475L37.0204 31.0261C39.5421 27.1688 40.6565 22.565 40.1768 17.9863C39.6972 13.4077 37.6526 9.13243 34.3858 5.87722ZM33.915 29.0103L20.1421 50.0782L6.36901 29.0103C2.15314 22.5613 3.05735 13.931 8.51899 8.48858C10.0453 6.96762 11.8574 5.76112 13.8517 4.93797C15.846 4.11483 17.9834 3.69116 20.1421 3.69116C22.3007 3.69116 24.4381 4.11483 26.4324 4.93797C28.4267 5.76112 30.2388 6.96762 31.7651 8.48858C37.2267 13.931 38.1308 22.5613 33.915 29.0103Z" fill="#FBB03B"/>
</svg>
