<svg width="23" height="27" viewBox="0 0 23 27" fill="none" xmlns="http://www.w3.org/2000/svg">
<path d="M22.186 0.608419L22.1857 0.608127C22.0295 0.461895 21.8382 0.367472 21.6337 0.337775C21.4291 0.308064 21.2217 0.344675 21.0361 0.442377L21.0359 0.442483L0.953221 11.0717L0.9 11.0999V11.1601V13.2169V13.2815L0.958885 13.308L9.36463 17.0993L14.7591 26.4577L14.788 26.5077H14.8457H16.6701H16.7494L16.7675 26.4305L22.5319 1.82471L22.5319 1.82449C22.5825 1.60659 22.5771 1.37711 22.5163 1.16239C22.4556 0.947662 22.3415 0.755275 22.186 0.608419ZM16.8396 6.31066L9.67554 15.1582L2.97724 12.137L20.4967 2.8641L15.5041 24.1769L11.014 16.3875L18.1273 7.6023L18.1832 7.53334L18.1213 7.46969L16.989 6.30392L16.9105 6.22307L16.8396 6.31066Z" fill="#FBB03B" stroke="#FBB03B" stroke-width="0.2"/>
</svg>
