<svg width="32" height="35" viewBox="0 0 32 35" fill="none" xmlns="http://www.w3.org/2000/svg">
<path d="M31.0851 4.29678L31.0322 4.26237L24.3497 0.833008L17.1371 10.8505L20.4555 15.4596C20.3562 17.1978 19.6485 18.8378 18.4665 20.0691C17.2845 21.3003 15.7101 22.0374 14.0414 22.1409L9.61673 18.6842L0 26.1972L3.26479 33.0999L3.29226 33.1582L3.32537 33.2132C3.4996 33.5056 3.74277 33.7467 4.03175 33.9136C4.32073 34.0804 4.64589 34.1674 4.97629 34.1663H6.70059C10.023 34.1663 13.3128 33.4847 16.3823 32.1603C19.4517 30.8359 22.2407 28.8947 24.59 26.4475C26.9393 24.0004 28.8028 21.0952 30.0742 17.8978C31.3456 14.7004 32 11.2735 32 7.81271V6.01648C32.001 5.67233 31.9175 5.33362 31.7574 5.0326C31.5972 4.73158 31.3658 4.47826 31.0851 4.29678ZM29.5305 7.81271C29.5305 20.9257 19.289 31.594 6.70059 31.594H5.30534L3.12095 26.9747L9.61719 21.8995L13.234 24.725H13.6455C16.1089 24.7222 18.4706 23.7015 20.2125 21.8871C21.9543 20.0726 22.9341 17.6125 22.9369 15.0465V14.6178L20.2244 10.8504L25.0961 4.08391L29.5305 6.35973V7.81271Z" fill="#FBB03B"/>
</svg>
