<svg width="61" height="60" viewBox="0 0 61 60" fill="none" xmlns="http://www.w3.org/2000/svg">
<path d="M32.5736 0.750657C31.8899 0.262443 31.0708 0 30.2307 0C29.3906 0 28.5715 0.262443 27.8879 0.750657L0 20.6706V60H60.4615V20.6706L32.5736 0.750657ZM56.4307 48.2469L40.8077 38.2036L56.4307 26.0524V48.2469ZM30.2307 4.03057L55.2251 21.8841L37.2133 35.8929L30.2307 31.4041L23.2482 35.8929L5.23634 21.8841L30.2307 4.03057ZM4.03076 26.0524L19.6538 38.2036L4.03076 48.2469V26.0524ZM56.4307 55.9692H4.03076V53.0387L30.2307 36.1959L56.4307 53.0387V55.9692Z" fill="#FBB03B"/>
</svg>
