<svg width="33" height="38" viewBox="0 0 33 38" fill="none" xmlns="http://www.w3.org/2000/svg">
<path d="M4.29653 1.08013L4.29652 1.08012C3.94032 0.868112 3.53431 0.754248 3.11981 0.750117C2.70531 0.745986 2.29711 0.851735 1.93675 1.05661C1.57639 1.26147 1.27674 1.55815 1.06828 1.91645C0.859826 2.27474 0.750007 2.68186 0.75 3.09639V3.09639L0.75 34.9046L0.75 34.9049C0.750484 35.3156 0.85873 35.7191 1.06393 36.075C1.26912 36.4308 1.56409 36.7266 1.91937 36.9328C2.27465 37.139 2.67781 37.2483 3.08858 37.25C3.49936 37.2516 3.90337 37.1454 4.26028 36.9421L4.26055 36.9419L31.5248 21.3626L31.4008 21.1456L31.5248 21.3626C31.8809 21.1591 32.1774 20.8659 32.3848 20.5121C32.5923 20.1582 32.7033 19.7563 32.7069 19.3461C32.7106 18.936 32.6066 18.5321 32.4055 18.1747C32.2045 17.8174 31.9135 17.5187 31.561 17.3088L4.29653 1.08013ZM4.04523 33.2696V4.76534L28.4775 19.3083L4.04523 33.2696Z" fill="#FBB03B" stroke="#FBB03B" stroke-width="0.5"/>
</svg>
