<svg width="24" height="27" viewBox="0 0 24 27" fill="none" xmlns="http://www.w3.org/2000/svg">
<path d="M12 0.129883C8.73784 0.129883 8.33129 0.146934 7.05463 0.205397C5.77272 0.273603 4.90561 0.488776 4.14052 0.810319C3.35142 1.14485 2.67933 1.589 2.0155 2.31166C1.34717 3.03026 0.933117 3.75779 0.628579 4.61199C0.331541 5.44021 0.132767 6.37885 0.0697587 7.76652C0.0120015 9.14931 0 9.58859 0 13.1199C0 16.6512 0.015752 17.0912 0.0697587 18.4732C0.132767 19.8568 0.331541 20.7995 0.628579 21.6278C0.937617 22.482 1.34792 23.2095 2.0155 23.9281C2.67933 24.6516 3.35142 25.0998 4.14052 25.4294C4.90561 25.7469 5.77647 25.9661 7.05463 26.0343C8.33204 26.0969 8.73784 26.1099 12 26.1099C15.2622 26.1099 15.6687 26.0928 16.9454 26.0343C18.2235 25.9661 19.0944 25.7461 19.8595 25.4294C20.6486 25.0949 21.3207 24.6507 21.9845 23.9281C22.6528 23.2095 23.0669 22.486 23.3714 21.6278C23.6647 20.7995 23.8672 19.8568 23.9302 18.4732C23.988 17.0904 24 16.6512 24 13.1199C24 9.58859 23.9842 9.1485 23.9302 7.76652C23.8672 6.38291 23.664 5.43533 23.3714 4.61199C23.0624 3.75779 22.6521 3.03026 21.9845 2.31166C21.3207 1.58819 20.6523 1.13998 19.8595 0.810319C19.0944 0.488776 18.2235 0.273603 16.9454 0.205397C15.668 0.142874 15.2622 0.129883 12 0.129883V0.129883ZM12 2.46837C15.2037 2.46837 15.5862 2.48542 16.8524 2.54389C18.0203 2.60316 18.6563 2.81428 19.0786 2.99291C19.642 3.22919 20.0358 3.50851 20.4618 3.96484C20.8796 4.41712 21.1376 4.84827 21.3559 5.45807C21.5209 5.91521 21.716 6.60377 21.7707 7.86801C21.8247 9.23863 21.8405 9.65355 21.8405 13.1207C21.8405 16.5878 21.8247 17.0027 21.7662 18.3734C21.7032 19.6376 21.5082 20.3262 21.3439 20.7833C21.1166 21.3931 20.8631 21.8194 20.4446 22.2806C20.0223 22.7329 19.6202 23.0122 19.0614 23.2485C18.6443 23.4271 17.9993 23.6382 16.8269 23.6975C15.5539 23.7559 15.1789 23.773 11.967 23.773C8.7551 23.773 8.3808 23.7559 7.10639 23.6926C5.93849 23.6244 5.29416 23.4133 4.87186 23.2355C4.30179 22.9894 3.91099 22.715 3.49244 22.2619C3.07013 21.8048 2.8016 21.3695 2.59457 20.7646C2.42655 20.3132 2.23453 19.6149 2.17227 18.3458C2.12952 16.9841 2.10926 16.5618 2.10926 13.1012C2.10926 9.64218 2.12952 9.21914 2.17227 7.84041C2.23453 6.57129 2.42655 5.87461 2.59457 5.42153C2.8016 4.80362 3.07088 4.38139 3.49244 3.92425C3.91024 3.47198 4.30179 3.17966 4.87186 2.95069C5.29416 2.77286 5.92274 2.56175 7.09514 2.49842C8.36805 2.44889 8.74309 2.43102 11.9505 2.43102L12 2.46837ZM12 6.45274C8.59383 6.45274 5.83948 9.43837 5.83948 13.1215C5.83948 16.8087 8.59758 19.7903 12 19.7903C15.4062 19.7903 18.1605 16.8046 18.1605 13.1215C18.1605 9.43431 15.4024 6.45274 12 6.45274ZM12 17.4518C9.78872 17.4518 7.99975 15.5152 7.99975 13.1215C7.99975 10.7278 9.78872 8.79123 12 8.79123C14.2113 8.79123 16.0002 10.7278 16.0002 13.1215C16.0002 15.5152 14.2113 17.4518 12 17.4518ZM19.849 6.18641C19.849 7.04954 19.2002 7.74622 18.4066 7.74622C17.6092 7.74622 16.9656 7.04873 16.9656 6.18641C16.9656 5.32815 17.6137 4.62985 18.4066 4.62985C19.1994 4.62985 19.849 5.32815 19.849 6.18641Z" fill="#FBB03B"/>
</svg>
