<svg width="16" height="16" viewBox="0 0 16 16" fill="none" xmlns="http://www.w3.org/2000/svg">
<path d="M15.9942 7.2C15.9581 6.29587 15.7443 5.40771 15.3648 4.58627C14.9518 3.68987 14.3674 2.88293 13.6445 2.2109C12.1236 0.785167 10.1191 0 8.00003 0C6.41777 -4.91175e-06 4.87105 0.469184 3.55545 1.34824C2.23986 2.22729 1.21447 3.47672 0.608969 4.93853C0.00346559 6.40034 -0.154961 8.00888 0.153723 9.56073C0.462406 11.1126 1.22434 12.538 2.34316 13.6569C3.83346 15.1472 5.85164 15.9891 7.95921 15.9999C10.0668 16.0106 12.0934 15.1893 13.5989 13.7143L12.8522 12.9524C11.5586 14.2257 9.81513 14.9375 8.00003 14.9333C4.17699 14.9333 1.0667 11.823 1.0667 8C1.0667 4.17697 4.17699 1.06667 8.00003 1.06667C11.7583 1.06667 14.9334 3.9975 14.9334 7.46667V8.66667C14.9334 9.62243 14.096 10.4 13.0667 10.4C12.0374 10.4 11.2 9.62243 11.2 8.66667V4.8H10.1334V5.6917C9.63838 5.23195 9.01539 4.93348 8.34693 4.83582C7.67848 4.73816 6.99613 4.84594 6.39032 5.14487C5.78451 5.4438 5.28383 5.91977 4.95466 6.50969C4.62548 7.09961 4.48333 7.77564 4.54707 8.44817C4.6108 9.12071 4.87739 9.758 5.31152 10.2756C5.74565 10.7932 6.32681 11.1666 6.97799 11.3464C7.62917 11.5263 8.31962 11.5039 8.95783 11.2825C9.59604 11.061 10.1519 10.6508 10.5517 10.1063C11.0652 10.9207 12.0004 11.4667 13.0667 11.4667C14.6841 11.4667 16 10.2106 16 8.66667V7.2H15.9942ZM7.86669 10.4C7.41839 10.4 6.98015 10.2671 6.6074 10.018C6.23465 9.76893 5.94413 9.41493 5.77257 9.00075C5.60101 8.58657 5.55612 8.13082 5.64358 7.69113C5.73104 7.25144 5.94692 6.84756 6.26392 6.53056C6.58092 6.21356 6.9848 5.99768 7.42449 5.91022C7.86418 5.82276 8.31993 5.86765 8.73411 6.03921C9.14829 6.21076 9.50229 6.50129 9.75136 6.87404C10.0004 7.24679 10.1334 7.68503 10.1334 8.13333C10.1327 8.73428 9.89365 9.31042 9.46872 9.73536C9.04379 10.1603 8.46764 10.3993 7.86669 10.4Z" fill="#3D3E40"/>
</svg>
