<svg width="24" height="24" viewBox="0 0 24 24" fill="none" xmlns="http://www.w3.org/2000/svg">
<path d="M22.3812 2.49391L22.3432 2.46914L17.5318 0L12.3387 7.2126L14.7279 10.5312C14.6564 11.7827 14.1469 12.9635 13.2959 13.85C12.4448 14.7365 11.3113 15.2672 10.1098 15.3417L6.92404 12.8529L0 18.2622L2.35065 23.2322L2.37043 23.2741L2.39427 23.3137C2.51971 23.5243 2.6948 23.6979 2.90286 23.818C3.11093 23.9381 3.34504 24.0008 3.58293 24H4.82443C7.21654 24 9.58522 23.5092 11.7952 22.5556C14.0053 21.6021 16.0133 20.2044 17.7048 18.4425C19.3963 16.6805 20.738 14.5888 21.6534 12.2867C22.5688 9.98455 23.04 7.51717 23.04 5.02539V3.7321C23.0408 3.48431 22.9806 3.24044 22.8653 3.0237C22.75 2.80697 22.5834 2.62458 22.3812 2.49391ZM21.262 5.02539C21.262 14.4668 13.8881 22.1479 4.82443 22.1479H3.81985L2.24708 18.822L6.92438 15.1679L9.52845 17.2023H9.82477C11.5984 17.2002 13.2988 16.4653 14.553 15.1589C15.8071 13.8525 16.5126 12.0813 16.5146 10.2337V9.92506L14.5616 7.21255L18.0692 2.34065L21.262 3.97924V5.02539Z" fill="#FBB03B"/>
</svg>
