<svg width="59" height="60" viewBox="0 0 59 60" fill="none" xmlns="http://www.w3.org/2000/svg">
<path d="M57.3131 6.23478L57.2156 6.17285L44.8948 0L31.5965 18.0315L37.7147 26.3279C37.5317 29.4567 36.2269 32.4086 34.0476 34.6249C31.8682 36.8412 28.9655 38.168 25.8888 38.3541L17.7308 32.1322L0 45.6556L6.01946 58.0805L6.07011 58.1854L6.13115 58.2843C6.45238 58.8107 6.90074 59.2447 7.43354 59.545C7.96635 59.8453 8.56587 60.0019 9.17503 60H12.3542C18.4798 60 24.5455 58.773 30.2048 56.3891C35.8641 54.0052 41.0063 50.511 45.3378 46.1061C49.6693 41.7012 53.1052 36.4719 55.4493 30.7166C57.7935 24.9614 59 18.7929 59 12.5635V9.33025C59.0019 8.71077 58.8479 8.10109 58.5527 7.55926C58.2574 7.01742 57.8306 6.56146 57.3131 6.23478ZM54.4469 12.5635C54.4469 36.1669 35.5641 55.3697 12.3542 55.3697H9.78173L5.75424 47.0551L17.7317 37.9198L24.4001 43.0056H25.1589C29.7008 43.0005 34.0551 41.1634 37.2667 37.8974C40.4783 34.6313 42.2848 30.2032 42.2899 25.5843V24.8127L37.2887 18.0314L46.2708 5.85163L54.4469 9.9481V12.5635Z" fill="#FBB03B"/>
</svg>
