<svg width="32" height="31" viewBox="0 0 32 31" fill="none" xmlns="http://www.w3.org/2000/svg">
<path d="M31.0851 3.23302L31.0322 3.20137L24.3497 0.0463562L17.1371 9.26246L20.4555 13.5028C20.3562 15.102 19.6485 16.6108 18.4665 17.7435C17.2845 18.8763 15.7101 19.5544 14.0414 19.6496L9.61673 16.4695L0 23.3814L3.26479 29.7319L3.29226 29.7855L3.32537 29.8361C3.4996 30.1052 3.74277 30.327 4.03175 30.4805C4.32073 30.634 4.64589 30.714 4.97629 30.713H6.70059C10.023 30.713 13.3128 30.0859 16.3823 28.8675C19.4517 27.649 22.2407 25.8631 24.59 23.6117C26.9393 21.3603 28.8028 18.6875 30.0742 15.746C31.3456 12.8044 32 9.65162 32 6.46769V4.81515C32.001 4.49853 31.9175 4.18692 31.7574 3.90998C31.5972 3.63304 31.3658 3.39999 31.0851 3.23302V3.23302ZM29.5305 6.46769C29.5305 18.5317 19.289 28.3464 6.70059 28.3464H5.30534L3.12095 24.0967L9.61719 19.4276L13.234 22.027H13.6455C16.1089 22.0244 18.4706 21.0854 20.2125 19.4161C21.9543 17.7468 22.9341 15.4835 22.9369 13.1228V12.7284L20.2244 9.26239L25.0961 3.03719L29.5305 5.13094V6.46769Z" fill="#FBB03B"/>
</svg>
