<svg width="35" height="27" viewBox="0 0 35 27" fill="none" xmlns="http://www.w3.org/2000/svg">
<path d="M33.6272 4.13703C33.2192 2.56928 32.0898 1.33972 30.6351 0.905076C27.9565 0.12992 17.1885 0.12992 17.1885 0.12992C17.1885 0.12992 6.44082 0.111325 3.73432 0.905076C2.28713 1.34088 1.15235 2.56928 0.748683 4.13703C0.240879 7.10865 -0.0114133 10.1163 0.000396143 13.1379C-0.00497177 16.1397 0.246247 19.1428 0.748683 22.0958C1.15235 23.6635 2.28713 24.8931 3.73432 25.3347C6.41291 26.1099 17.1885 26.1099 17.1885 26.1099C17.1885 26.1099 27.9297 26.1099 30.6351 25.3347C32.0898 24.8931 33.2192 23.6647 33.6272 22.0958C34.1199 19.1428 34.3604 16.1397 34.3432 13.1379C34.3604 10.1163 34.1253 7.10865 33.6272 4.13703ZM13.7487 18.7011V7.55027L22.712 13.1379L13.7487 18.7011Z" fill="#FBB03B"/>
</svg>
