<svg width="24" height="27" viewBox="0 0 24 27" fill="none" xmlns="http://www.w3.org/2000/svg">
<path d="M22.3812 3.42476L22.3432 3.39794L17.5318 0.725098L12.3387 8.53274L14.7279 12.1251C14.6564 13.4798 14.1469 14.758 13.2959 15.7177C12.4448 16.6773 11.3112 17.2518 10.1098 17.3324L6.92404 14.6383L0 20.494L2.35065 25.8739L2.37043 25.9194L2.39426 25.9622C2.51971 26.1901 2.69479 26.378 2.90286 26.5081C3.11092 26.6381 3.34504 26.7059 3.58292 26.7051H4.82442C7.21653 26.7051 9.58521 26.1738 11.7952 25.1416C14.0052 24.1093 16.0133 22.5964 17.7048 20.6891C19.3963 18.7817 20.738 16.5174 21.6534 14.0254C22.5688 11.5334 23.04 8.86243 23.04 6.16508V4.7651C23.0407 4.49686 22.9806 4.23287 22.8653 3.99826C22.75 3.76364 22.5833 3.56621 22.3812 3.42476ZM21.262 6.16508C21.262 16.3854 13.8881 24.7002 4.82442 24.7002H3.81984L2.24708 21.1L6.92437 17.1443L9.52844 19.3465H9.82476C11.5984 19.3443 13.2988 18.5488 14.553 17.1346C15.8071 15.7205 16.5126 13.8031 16.5145 11.8031V11.469L14.5616 8.53268L18.0691 3.25885L21.262 5.03262V6.16508Z" fill="#FBB03B"/>
</svg>
