<svg width="24" height="27" viewBox="0 0 24 27" fill="none" xmlns="http://www.w3.org/2000/svg">
<path d="M24 13.2003C24 5.97973 18.6248 0.129883 12 0.129883C5.37075 0.129883 0 5.97973 0 13.2003C0 19.7225 4.38675 25.1304 10.125 26.1099V16.9793H7.07775V13.2012H10.125V10.3199C10.125 7.04497 11.9138 5.23635 14.6558 5.23635C15.969 5.23635 17.3438 5.49122 17.3438 5.49122V8.70737H15.828C14.34 8.70737 13.875 9.71624 13.875 10.7496V13.2003H17.2028L16.668 16.9785H13.875V26.109C19.6087 25.1296 24 19.7217 24 13.1995V13.2003Z" fill="#FBB03B"/>
</svg>
