<svg width="40" height="40" viewBox="0 0 40 40" fill="none" xmlns="http://www.w3.org/2000/svg">
<g filter="url(#filter0_d_2302_585)">
<path d="M34.3296 1.34546C34.1322 1.18843 33.8924 1.08839 33.638 1.05698C33.3835 1.02558 33.125 1.06411 32.8926 1.16809L5 13.7148V16.1426L16.7155 20.6335L24.2302 31.713H26.764L34.7702 2.66841C34.8351 2.43055 34.8281 2.17991 34.7501 1.94569C34.6721 1.71147 34.5263 1.50331 34.3296 1.34546ZM25.1996 29.3974L18.7404 19.8739L28.68 9.4409L27.1073 8.06482L17.0899 18.5791L7.43045 14.8763L32.2835 3.69652L25.1996 29.3974Z" fill="#FBB03B"/>
<path d="M34.3922 1.26747L34.3918 1.26721C34.1798 1.09851 33.9226 0.991357 33.6502 0.957736C33.3778 0.924116 33.101 0.965336 32.8518 1.07681L32.8516 1.0769L4.95898 13.6236L4.9 13.6501V13.7148V16.1426V16.2114L4.96421 16.236L16.6503 20.7156L24.1474 31.7692L24.1772 31.813H24.2302H26.764H26.8402L26.8604 31.7396L34.8666 2.69499L34.8666 2.69474C34.9367 2.43781 34.9292 2.16702 34.845 1.9141C34.7608 1.66121 34.6035 1.43708 34.3922 1.26747ZM27.0349 7.99584L17.0635 18.4619L7.6906 14.869L32.1306 3.87496L25.1608 29.162L18.8684 19.8845L28.7524 9.50988L28.8244 9.43434L28.7458 9.36564L27.1732 7.98956L27.101 7.92644L27.0349 7.99584Z" stroke="#FBB03B" stroke-width="0.2"/>
</g>
<defs>
<filter id="filter0_d_2302_585" x="0.799805" y="0.846359" width="38.2144" height="39.0667" filterUnits="userSpaceOnUse" color-interpolation-filters="sRGB">
<feFlood flood-opacity="0" result="BackgroundImageFix"/>
<feColorMatrix in="SourceAlpha" type="matrix" values="0 0 0 0 0 0 0 0 0 0 0 0 0 0 0 0 0 0 127 0" result="hardAlpha"/>
<feOffset dy="4"/>
<feGaussianBlur stdDeviation="2"/>
<feComposite in2="hardAlpha" operator="out"/>
<feColorMatrix type="matrix" values="0 0 0 0 0 0 0 0 0 0 0 0 0 0 0 0 0 0 0.25 0"/>
<feBlend mode="normal" in2="BackgroundImageFix" result="effect1_dropShadow_2302_585"/>
<feBlend mode="normal" in="SourceGraphic" in2="effect1_dropShadow_2302_585" result="shape"/>
</filter>
</defs>
</svg>
