<svg width="16" height="16" viewBox="0 0 16 16" fill="none" xmlns="http://www.w3.org/2000/svg">
<path d="M14.8604 6.50824L8.11759 0.304856C7.89839 0.103189 7.60972 -0.0059506 7.31193 0.000250488C7.01414 0.00645158 6.73027 0.127513 6.51966 0.338131L0.318248 6.53958L0 6.85779V16H5.97586V10.2958H9.23541V16H15.2113V6.83107L14.8604 6.50824ZM7.33529 1.08654C7.34487 1.08654 7.33896 1.08861 7.33485 1.09265C7.33061 1.08861 7.32572 1.08654 7.33529 1.08654ZM14.1247 14.9135H10.3219V10.2958C10.3219 10.0076 10.2075 9.73125 10.0037 9.52749C9.79994 9.32373 9.52358 9.20926 9.23541 9.20926H5.97586C5.68769 9.20926 5.41133 9.32373 5.20757 9.52749C5.00381 9.73125 4.88934 10.0076 4.88934 10.2958V14.9135H1.08652V7.30785L7.33529 1.1064C7.33574 1.10599 7.33577 1.10562 7.33611 1.10521L14.1247 7.30785V14.9135Z" fill="black"/>
</svg>
