<svg width="35" height="24" viewBox="0 0 35 24" fill="none" xmlns="http://www.w3.org/2000/svg">
<path d="M33.6272 3.70175C33.2192 2.25349 32.0898 1.11764 30.6351 0.716115C27.9565 3.4235e-05 17.1885 3.44081e-05 17.1885 3.44081e-05C17.1885 3.44081e-05 6.44083 -0.0171431 3.73432 0.716115C2.28713 1.11871 1.15235 2.25349 0.748684 3.70175C0.240879 6.44691 -0.0114133 9.22534 0.000396144 12.0167C-0.00497178 14.7897 0.246247 17.5639 0.748684 20.2918C1.15235 21.7401 2.28713 22.876 3.73432 23.2839C6.41291 24 17.1885 24 17.1885 24C17.1885 24 27.9297 24 30.6351 23.2839C32.0898 22.876 33.2192 21.7412 33.6272 20.2918C34.12 17.5639 34.3604 14.7897 34.3433 12.0167C34.3604 9.22534 34.1253 6.44691 33.6272 3.70175ZM13.7487 17.1559V6.85487L22.7121 12.0167L13.7487 17.1559Z" fill="#FBB03B"/>
</svg>
