<svg width="32" height="35" viewBox="0 0 32 35" fill="none" xmlns="http://www.w3.org/2000/svg">
<path d="M30.3953 1.08276L30.395 1.08248C30.1832 0.899294 29.9253 0.782212 29.6512 0.745446C29.3772 0.708678 29.0989 0.753838 28.8489 0.875399L28.8487 0.875494L0.956075 14.5132L0.9 14.5406V14.6031V17.242V17.3086L0.961539 17.3343L12.6475 22.2034L20.1453 34.2193L20.1747 34.2663H20.2302H22.764H22.8418L22.861 34.1909L30.8671 2.62069L30.8671 2.62046C30.9365 2.34427 30.9291 2.05328 30.8457 1.78125C30.7624 1.5092 30.6064 1.26686 30.3953 1.08276ZM23.0321 8.39585L13.062 19.7704L3.67299 15.8583L28.1335 3.89827L21.1603 31.3975L14.8645 21.3078L24.7552 10.0234L24.8185 9.95122L24.7489 9.88505L23.1762 8.38931L23.1008 8.31753L23.0321 8.39585Z" fill="#FBB03B" stroke="#FBB03B" stroke-width="0.2"/>
</svg>
