<svg width="23" height="26" viewBox="0 0 23 26" fill="none" xmlns="http://www.w3.org/2000/svg">
<path d="M22.183 1.15872L22.1827 1.15844C22.0262 1.02305 21.8354 0.936413 21.6326 0.909204C21.4298 0.881994 21.2239 0.915426 21.0389 1.00534L21.0388 1.00544L0.956075 10.8246L0.9 10.852V10.9144V12.8144V12.8811L0.961539 12.9067L9.36721 16.4091L14.7609 25.0529L14.7903 25.1H14.8457H16.6701H16.7479L16.767 25.0246L22.5314 2.29402L22.5315 2.29379C22.5827 2.08998 22.5772 1.87528 22.5157 1.67453C22.4542 1.47377 22.339 1.29478 22.183 1.15872ZM16.8421 6.42679L9.67687 14.6013L2.99246 11.8162L20.4942 3.25869L15.5044 22.9359L11.0172 15.7446L18.1248 7.63555L18.1881 7.56335L18.1185 7.49718L16.9862 6.42025L16.9107 6.34847L16.8421 6.42679Z" fill="#FBB03B" stroke="#FBB03B" stroke-width="0.2"/>
</svg>
